<?xml version="1.0" encoding="UTF-8" standalone="no"?>
<!--
  Licensed under the Apache License, Version 2.0 (the "License");
  you may not use this file except in compliance with the License.
  You may obtain a copy of the License at

    http://www.apache.org/licenses/LICENSE-2.0

  Unless required by applicable law or agreed to in writing, software
  distributed under the License is distributed on an "AS IS" BASIS,
  WITHOUT WARRANTIES OR CONDITIONS OF ANY KIND, either express or implied.
  See the License for the specific language governing permissions and
  limitations under the License. See accompanying LICENSE file.
-->
<svg
   xmlns:dc="http://purl.org/dc/elements/1.1/"
   xmlns:cc="http://creativecommons.org/ns#"
   xmlns:rdf="http://www.w3.org/1999/02/22-rdf-syntax-ns#"
   xmlns:svg="http://www.w3.org/2000/svg"
   xmlns="http://www.w3.org/2000/svg"
   xmlns:sodipodi="http://sodipodi.sourceforge.net/DTD/sodipodi-0.dtd"
   xmlns:inkscape="http://www.inkscape.org/namespaces/inkscape"
   width="24"
   height="24"
   viewBox="0 0 24 24"
   version="1.1"
   id="svg26"
   sodipodi:docname="ozone_bolt.svg"
   inkscape:version="0.92.4 (5da689c313, 2019-01-14)">
  <title
     id="title39">Apache Hadoop Ozone Logo</title>
  <metadata
     id="metadata32">
    <rdf:RDF>
      <cc:Work
         rdf:about="">
        <dc:format>image/svg+xml</dc:format>
        <dc:type
           rdf:resource="http://purl.org/dc/dcmitype/StillImage" />
        <dc:title>Apache Hadoop Ozone Logo</dc:title>
        <cc:license
           rdf:resource="https://www.apache.org/licenses/LICENSE-2.0" />
      </cc:Work>
    </rdf:RDF>
  </metadata>
  <defs
     id="defs30">
    <filter
       style="color-interpolation-filters:sRGB"
       inkscape:label="Fade to Black or White"
       id="filter3871">
      <feComposite
         k4="0"
         k3="0"
         in2="SourceGraphic"
         operator="arithmetic"
         k1="0"
         k2="1"
         result="composite1"
         id="feComposite3857" />
      <feColorMatrix
         in="composite1"
         values="1"
         type="saturate"
         result="colormatrix1"
         id="feColorMatrix3859" />
      <feFlood
         flood-opacity="0"
         flood-color="rgb(0,0,0)"
         result="flood1"
         id="feFlood3861" />
      <feBlend
         in="flood1"
         in2="colormatrix1"
         mode="multiply"
         result="blend1"
         id="feBlend3863" />
      <feBlend
         in2="blend1"
         mode="screen"
         result="blend2"
         id="feBlend3865" />
      <feColorMatrix
         in="blend2"
         values="1"
         type="saturate"
         result="colormatrix2"
         id="feColorMatrix3867" />
      <feComposite
         in="colormatrix2"
         in2="SourceGraphic"
         operator="in"
         result="fbSourceGraphic"
         id="feComposite3869" />
      <feColorMatrix
         result="fbSourceGraphicAlpha"
         in="fbSourceGraphic"
         values="0 0 0 -1 0 0 0 0 -1 0 0 0 0 -1 0 0 0 0 1 0"
         id="feColorMatrix3873" />
      <feColorMatrix
         id="feColorMatrix3875"
         values="1 0 0 0 0 0 1 0 0 0 0 0 1 0 0 0 0 0 1 0"
         in="fbSourceGraphic" />
    </filter>
    <filter
       style="color-interpolation-filters:sRGB"
       inkscape:label="Fade to Black or White"
       id="filter3871-6">
      <feComposite
         k4="0"
         k3="0"
         in2="SourceGraphic"
         operator="arithmetic"
         k1="0"
         k2="1"
         result="composite1"
         id="feComposite3857-7" />
      <feColorMatrix
         in="composite1"
         values="1"
         type="saturate"
         result="colormatrix1"
         id="feColorMatrix3859-7" />
      <feFlood
         flood-opacity="0"
         flood-color="rgb(0,0,0)"
         result="flood1"
         id="feFlood3861-3" />
      <feBlend
         in="flood1"
         in2="colormatrix1"
         mode="multiply"
         result="blend1"
         id="feBlend3863-4" />
      <feBlend
         in2="blend1"
         mode="screen"
         result="blend2"
         id="feBlend3865-4" />
      <feColorMatrix
         in="blend2"
         values="1"
         type="saturate"
         result="colormatrix2"
         id="feColorMatrix3867-9" />
      <feComposite
         in="colormatrix2"
         in2="SourceGraphic"
         operator="in"
         result="fbSourceGraphic"
         id="feComposite3869-5" />
      <feColorMatrix
         result="fbSourceGraphicAlpha"
         in="fbSourceGraphic"
         values="0 0 0 -1 0 0 0 0 -1 0 0 0 0 -1 0 0 0 0 1 0"
         id="feColorMatrix3873-6" />
      <feColorMatrix
         id="feColorMatrix3875-9"
         values="1 0 0 0 0 0 1 0 0 0 0 0 1 0 0 0 0 0 1 0"
         in="fbSourceGraphic" />
    </filter>
  </defs>
  <sodipodi:namedview
     pagecolor="#ffffff"
     bordercolor="#666666"
     borderopacity="1"
     objecttolerance="10"
     gridtolerance="10"
     guidetolerance="10"
     inkscape:pageopacity="0"
     inkscape:pageshadow="2"
     inkscape:window-width="2560"
     inkscape:window-height="1377"
     id="namedview28"
     showgrid="false"
     inkscape:zoom="50.333333"
     inkscape:cx="5.6090237"
     inkscape:cy="12.124741"
     inkscape:window-x="-8"
     inkscape:window-y="-8"
     inkscape:window-maximized="1"
     inkscape:current-layer="svg26" />
  <path
     d="M0 0h24v24H0z"
     fill="none"
     id="path22" />
  <path
     d="M12 2C6.47 2 2 6.47 2 12s4.47 10 10 10 10-4.47 10-10S17.53 2 12 2zm0 18c-4.41 0-8-3.59-8-8s3.59-8 8-8 8 3.59 8 8-3.59 8-8 8z"
     id="path24" />
  <path
     id="path3793"
     style="display:inline;fill:#000000;stroke-width:0.0611272;filter:url(#filter3871-6)"
     d="m 13.056641,3.5664061 c 0.008,0.00631 0.01539,0.00522 0.02344,0.013672 0.0036,-0.00964 -0.0028,-0.00826 -0.0059,-0.011719 -0.0065,-3.517e-4 -0.01125,-0.00159 -0.01758,-0.00195 z m 3.527343,0.037109 c -0.265109,0.00164 -0.261023,0.00977 -0.572265,0.00977 -0.528145,3e-7 -0.751941,-0.00507 -1.09375,-0.00781 0.0058,0.00765 0.01075,0.014666 0.01758,0.021484 0.01277,0.012724 0.0364,0.020818 0.04297,0.035156 0.760454,0.00641 1.098737,-0.00939 1.740234,-0.013672 -0.0039,-0.00172 -0.0042,-0.00444 -0.0098,-0.00781 h -0.002 c -0.01757,-0.00155 -0.03551,-0.00208 -0.05273,-0.00586 -0.01981,-0.00435 -0.04624,-0.020469 -0.07031,-0.03125 z m 0.125,0.037109 c 0.0053,0.00253 0.01036,0.00536 0.01563,0.00781 0.01079,-7.27e-5 0.01857,-0.00188 0.0293,-0.00195 -0.01374,-0.00124 -0.01707,-0.00126 -0.02539,-0.00195 -0.0019,-7.017e-4 -0.0039,-0.00128 -0.0059,-0.00195 -0.0046,-3.284e-4 -0.0091,-0.00156 -0.01367,-0.00195 z m 0.01367,0.00195 c 0.0085,6.055e-4 0.01693,0.0014 0.02539,0.00195 -0.03021,-0.00779 -0.05985,-0.016967 -0.08984,-0.025391 0.02134,0.0083 0.04275,0.01595 0.06445,0.023437 z M 12.35156,3.9648398 11.82031,4.4199179 c -1.717401,1.468856 -3.4059295,2.9753953 -3.3789058,3.015625 0.017225,0.025642 0.9885907,0.046875 2.1582028,0.046875 1.847135,1e-7 2.139687,0.011867 2.226563,0.091797 0.0795,0.073145 0.08442,0.1171243 0.02734,0.21875 -0.103745,0.184719 -3.6859371,3.4911721 -6.1562444,5.6816441 -1.1649114,1.032951 -2.1010012,1.904401 -2.0800781,1.935547 0.023778,0.0354 0.9668506,0.04938 2.5136719,0.03711 1.5963317,-0.01266 2.4956668,0.0012 2.5371094,0.03906 0.043068,0.03937 -0.1817888,0.331303 -0.6816407,0.884766 -0.7815048,0.865322 -1.6024592,1.790695 -2.4375,2.726562 -0.017406,0.02586 -0.03718,0.04334 -0.056641,0.06445 -2.0392423,2.28602 -3.9317847,4.425975 -3.9453125,4.484375 -0.0287,0.123905 -0.012406,0.115151 1.3632812,-0.792968 2.2030029,-1.454247 4.4261195,-3.039982 8.1230472,-5.791016 2.398539,-1.784851 5.742475,-4.249391 7.25,-5.34375 0.499312,-0.362467 0.908203,-0.684224 0.908203,-0.714844 0,-0.03444 -1.023514,-0.05179 -2.685547,-0.04492 -1.940868,0.008 -2.695451,-0.0051 -2.71289,-0.05273 -0.04992,-0.136184 3.34749,-3.0823825 6.847656,-5.9375001 0.604617,-0.4931924 1.099609,-0.9217091 1.099609,-0.9511719 0,-0.031898 -2.1005,-0.052734 -5.193359,-0.052734 z m 7.75586,6.5722652 c 0.0024,0.02482 -0.0088,0.04803 -0.03125,0.06836 0.100649,0.0069 0.344113,0.0063 0.490234,0.01172 -6.8e-5,-0.02346 0.0018,-0.04686 0.002,-0.07031 -0.01368,-2.73e-4 -0.0275,2.83e-4 -0.04102,0 z M 6.0996094,19.017578 c 9.828e-4,0.0059 0.00276,0.0083 0.00391,0.01367 0.00279,-0.0033 0.00699,-0.0065 0.00977,-0.0098 -0.00494,-0.002 -0.00862,-0.0018 -0.013672,-0.0039 z m -0.171875,0.212891 c 4.867e-4,-6.43e-4 0.00277,-0.0028 -0.00195,0.01172 -8.702e-4,0.002 -0.00109,0.0038 -0.00195,0.0059 0.00382,-0.0044 0.00593,-0.0092 0.00977,-0.01367 -0.0021,-0.0016 -0.00379,-0.0023 -0.00586,-0.0039 z"
     inkscape:connector-curvature="0" />
</svg>
